<?xml version="1.0" encoding="UTF-8" standalone="no"?>
<!-- Created with Inkscape (http://www.inkscape.org/) -->

<svg
   width="210mm"
   height="297mm"
   viewBox="0 0 210 297"
   version="1.1"
   id="svg5"
   inkscape:version="1.1.1 (3bf5ae0d25, 2021-09-20)"
   sodipodi:docname="logo.svg"
   inkscape:export-filename="C:\Users\Pablo Pineda\Desktop\empresarial inicial E\logo.png"
   inkscape:export-xdpi="96"
   inkscape:export-ydpi="96"
   xmlns:inkscape="http://www.inkscape.org/namespaces/inkscape"
   xmlns:sodipodi="http://sodipodi.sourceforge.net/DTD/sodipodi-0.dtd"
   xmlns="http://www.w3.org/2000/svg"
   xmlns:svg="http://www.w3.org/2000/svg">
  <sodipodi:namedview
     id="namedview7"
     pagecolor="#ffffff"
     bordercolor="#666666"
     borderopacity="1.0"
     inkscape:pageshadow="2"
     inkscape:pageopacity="0.0"
     inkscape:pagecheckerboard="0"
     inkscape:document-units="mm"
     showgrid="false"
     inkscape:zoom="0.46324355"
     inkscape:cx="-569.89461"
     inkscape:cy="378.85039"
     inkscape:window-width="1366"
     inkscape:window-height="705"
     inkscape:window-x="-8"
     inkscape:window-y="-8"
     inkscape:window-maximized="1"
     inkscape:current-layer="layer1" />
  <defs
     id="defs2">
    <rect
       x="224.50394"
       y="254.72562"
       width="360.50151"
       height="209.39309"
       id="rect3122" />
  </defs>
  <g
     inkscape:label="Capa 1"
     inkscape:groupmode="layer"
     id="layer1">
    <ellipse
       style="fill:#ffffff;fill-rule:evenodd;stroke-width:0.207481"
       id="ellipse291"
       cx="107.37691"
       cy="128.22403"
       rx="59.399998"
       ry="53.974033" />
    <ellipse
       style="fill:#ff0000;fill-rule:evenodd;stroke-width:0.363366"
       id="path207"
       cx="105.37787"
       cy="128.50963"
       rx="103.09326"
       ry="95.382683" />
    <ellipse
       style="fill:#ffffff;fill-rule:evenodd;stroke-width:0.327548"
       id="ellipse401"
       cx="105.94904"
       cy="129.08078"
       rx="94.525955"
       ry="84.530762" />
    <rect
       style="fill:#ff0000;stroke-width:0.415477"
       id="rect489"
       width="131.93654"
       height="78.24807"
       x="41.694233"
       y="55.973072"
       ry="29.484791" />
    <rect
       style="fill:#ffffff;stroke-width:0.360365"
       id="rect573"
       width="116.50303"
       height="66.664627"
       x="49.119228"
       y="61.27383"
       ry="25.12001" />
    <rect
       style="fill:#ff0000;stroke-width:0.289835"
       id="rect637"
       width="21.703844"
       height="35.982693"
       x="97.667297"
       y="132.50769"
       ry="11.047318" />
    <rect
       style="fill:#ff0000;stroke-width:0.173397"
       id="rect759"
       width="69.109619"
       height="16.640347"
       x="43.978836"
       y="179.26543"
       ry="6.0667925" />
    <rect
       style="fill:#ff0000;stroke-width:0.293206"
       id="rect863"
       width="11.423154"
       height="19.990385"
       x="133.07886"
       y="178.2"
       ry="6.3302879" />
    <path
       style="fill:#ff0000;stroke-width:0.264583"
       id="path253"
       d="m 79.441476,178.0333 c -0.03038,-1.60202 -0.01921,-3.20454 -0.01476,-4.80675 0.05229,-1.50985 1.151948,-2.50298 2.127022,-3.51773 1.210384,-1.051 5.335916,-3.36024 -0.678595,0.14806 0.957815,-0.53135 2.036461,-0.66031 3.109346,-0.74125 1.136375,-0.0598 2.27494,-0.0495 3.412453,-0.0466 1.143595,0.004 2.287196,0.007 3.430799,0.009 1.142463,10e-4 2.284926,10e-4 3.427391,10e-4 1.089089,0.0337 2.153912,0.0333 3.205158,-0.27252 2.036807,-0.82673 4.42507,-1.74522 5.51409,-3.73345 0.41628,-0.95866 0.83394,-1.92452 1.31639,-2.85461 0.30207,-0.6474 0.16398,-0.31888 0.41452,-0.98547 0,0 -3.58432,1.65964 -3.58432,1.65964 v 0 c -0.26513,0.63936 -0.12362,0.3207 -0.42527,0.95564 -0.43883,0.94615 -0.893898,1.88031 -1.34265,2.82139 -0.263001,0.36535 -0.219443,0.34192 -0.551267,0.65275 -0.110146,0.10318 -0.47624,0.36581 -0.342175,0.2965 5.697532,-2.94575 3.382012,-1.80644 2.118752,-1.24045 -1.012061,0.40988 -2.049477,0.4293 -3.131318,0.38153 -1.142384,-1e-5 -2.284764,2e-5 -3.427148,-7.9e-4 -1.143481,-10e-4 -2.286963,-0.003 -3.430437,-0.008 -1.142335,-0.004 -2.28519,-0.0146 -3.427068,0.0247 -1.093526,0.057 -2.202828,0.13885 -3.213661,0.59985 -2.016771,1.16401 -4.277296,2.24029 -6.027089,3.84742 -1.024356,1.0785 -1.997252,2.21122 -1.994498,3.78667 0.0045,1.60723 0.01548,3.21476 -0.01476,4.8218 0,0 3.529108,-1.79817 3.529108,-1.79817 z" />
    <path
       style="fill:#ff0000;stroke-width:0.264583"
       id="path376"
       d="m 141.52984,178.54867 c -0.52777,-1.23265 -1.15661,-2.42853 -1.61594,-3.68855 -0.2472,-1.21776 -0.64349,-2.38653 -1.03873,-3.56214 -0.56279,-1.07543 -1.37156,-1.9845 -2.07558,-2.9662 -0.8297,-0.90466 -1.94869,-1.42916 -3.1017,-1.79039 -1.13502,-0.302 -2.31306,-0.33551 -3.4801,-0.35969 -1.14555,-0.0123 -2.29119,-0.003 -3.43676,8e-4 -1.11265,-0.0264 -2.23168,0.0673 -3.34036,-0.0428 -0.95236,-0.13484 -1.82715,-0.54252 -2.60379,-1.0975 -0.8049,-0.45696 -1.46482,-1.03493 -2.10422,-1.69486 -0.59452,-0.66562 -0.97249,-1.47702 -1.41864,-2.23921 -0.35609,-0.75768 -0.98247,-1.33012 -1.41292,-2.03753 -0.388,-0.57498 -0.78799,-1.13856 -1.25408,-1.65333 0,0 -3.38557,2.05684 -3.38557,2.05684 v 0 c 0.46046,0.48498 0.83347,1.03599 1.21414,1.58388 0.42815,0.70935 1.04745,1.2804 1.41159,2.03248 0.46629,0.78732 0.85912,1.62605 1.4712,2.31891 0.6576,0.66922 1.29018,1.31207 2.13576,1.74887 0.79765,0.61506 1.7259,1.06859 2.71874,1.26087 1.11267,0.18797 2.25253,0.0423 3.37708,0.0835 1.14414,-0.004 2.2883,-0.012 3.43245,-0.007 1.14391,0.0134 2.29785,0.0251 3.42037,0.27235 1.0905,0.29523 2.15165,0.7571 2.95841,1.57136 0.68299,0.94954 1.46758,1.82604 2.02427,2.85954 0.39395,1.1792 0.77172,2.35763 1.04586,3.57101 0.46413,1.25563 1.10907,2.43805 1.59094,3.68878 0,0 3.46758,-1.90975 3.46758,-1.90975 z" />
    <text
       xml:space="preserve"
       transform="matrix(0.59972794,0,0,0.68062904,-78.097041,-111.37261)"
       id="text3120"
       style="font-style:normal;font-weight:normal;font-size:40px;line-height:1.25;font-family:sans-serif;white-space:pre;shape-inside:url(#rect3122);fill:#000000;fill-opacity:1;stroke:none"><tspan
         x="224.50391"
         y="291.21978"
         id="tspan38"> Pineda 
</tspan><tspan
         x="224.50391"
         y="341.21978"
         id="tspan40">Network</tspan></text>
  </g>
</svg>
